<svg width="225" height="225" version="1.1" xmlns="http://www.w3.org/2000/svg" desc="Created with imagetracer.js version 1.2.6" ><path fill="rgb(0,227,198)" stroke="rgb(0,227,198)" stroke-width="1" opacity="1" d="M 0 0 L 95.5 0 L 96 0.5 L 96 16 L 89 16 L 89 8.5 L 88 8.5 L 88 24 L 81 24 L 80.5 16 L 80 32 L 72 32 L 72 40 L 64 40 L 64 45 L 59.5 45 L 58.5 42 L 56 42.5 L 56 51 L 48.5 51 L 47.5 53 L 40 53 L 40 56 L 48 56 L 48 59 L 32 58 L 32 61 L 24.5 61 L 16 62.5 L 24 63 L 24 67 L 16.5 67 L 15.5 69 L 0 69 L 0 0 Z " /><path fill="rgb(0,227,198)" stroke="rgb(0,227,198)" stroke-width="1" opacity="1" d="M 78 38 Q 81 37 80 40 Q 77 41 78 38 Z " /><path fill="rgb(2,204,203)" stroke="rgb(2,204,203)" stroke-width="1" opacity="1" d="M 96 0 L 137.5 0 L 138 0.5 L 138 8 L 136 8.5 L 136 18 L 131 18 Q 132.1 21.3 128 20 L 128 24 L 125.5 24 L 122.5 28 L 120 29.5 L 120 32 L 112 32 L 112 40 L 105.5 40 Q 103 41.2 104 45 Q 99.7 44.2 98.5 48 L 88 51 Q 88.8 54.8 85.5 56 L 82 56 L 82 58 L 80 58 Q 81.1 60.7 78.5 60 L 74.5 61 L 72 63.5 L 70.5 66 L 63.5 69 L 59 69 Q 60.1 71.7 57.5 71 L 52 72 Q 53.3 75 49.5 74 L 44 75 L 41 79.5 L 42 82 Q 38.9 81.3 39.5 84 L 24.5 84 L 23.5 86 L 16 86 L 15.5 89 L 8.5 89 L 7.5 90 L 0 90 L 0 69 L 15.5 69 L 16.5 67 L 24 67 L 24 63 L 16 62.5 L 32 61 L 32 58 L 39.5 58 L 40.5 59 L 48 59 L 48 56 L 40 56 L 40 53 L 47.5 53 L 48.5 51 L 56 51 L 56 42.5 L 58.5 42 L 59.5 45 L 64 45 L 64 40 L 72 40 L 72 32 L 80 32 L 80 16.5 L 81 16.5 L 81 24 L 88 24 L 88.5 8 L 89 16 L 96 16 L 96 0 Z M 78 38 Q 77 41 80 40 Q 81 37 78 38 Z " /><path fill="rgb(10,172,205)" stroke="rgb(10,172,205)" stroke-width="1" opacity="1" d="M 163 0 L 203.5 0 L 204 0.5 L 204 8 L 197 8 L 197 16.5 L 192.5 23 L 192 21 L 189 22.5 L 189 26.5 L 184.5 31 L 184 29 L 181 30.5 L 177.5 38 L 176 38 Q 177.5 34.2 174.5 35 L 171 40 L 166 40 L 166 41.5 L 158.5 48 L 152 48 Q 153 54.4 147.5 56 L 135.5 56 L 132 59.5 L 128.5 64 L 120 64 L 120 69 L 118.5 69 L 117 72 L 107.5 72 L 107 73.5 L 100 77.5 L 98.5 80 L 92 81 L 92 83 L 88 83 Q 89.3 86 85.5 85 L 84 88 L 77.5 88 L 77 89.5 Q 75.7 93.8 71 93 L 69.5 89 Q 68 91.5 66.5 88 Q 62.8 89 64 86 L 61.5 86 L 59.5 87 L 56 86 Q 54.9 82.5 62.5 84 L 64 84.5 Q 63.3 82.3 65.5 83 L 70 82 L 70 80 L 74 80 L 74 78.5 L 83.5 72 L 88 72 Q 86.2 67.1 92.5 69 L 98 66 L 98 64 Q 101.7 65.5 101 62.5 L 109 57.5 Q 108.5 53.5 111.5 53 L 112.5 56 L 119.5 48 L 120.5 50 L 124 48 L 126.5 44 L 129.5 45 Q 133.5 42.7 134 38 L 138 40 L 143.5 33 L 144 35 L 147 33.5 L 146 30.5 Q 150.8 29.1 150 24 L 155 24 L 155 16 L 160 16 L 160 8.5 L 163 8 L 163 0 Z " /><path fill="rgb(10,172,205)" stroke="rgb(10,172,205)" stroke-width="1" opacity="1" d="M 142 30 Q 145 29 144 32 Q 141 33 142 30 Z " /><path fill="rgb(10,172,205)" stroke="rgb(10,172,205)" stroke-width="1" opacity="1" d="M 57.5 82 L 63 82.5 L 57.5 83 L 57.5 82 Z " /><path fill="rgb(10,172,205)" stroke="rgb(10,172,205)" stroke-width="1" opacity="1" d="M 42.5 88 L 45.5 89 L 47 88.5 L 43 91.5 L 43.5 93 L 45 92.5 L 41.5 96 L 40 94.5 L 41 92.5 L 40 90.5 L 42.5 88 Z M 43 89 L 41 92 L 44 90 L 43 89 Z " /><path fill="rgb(10,172,205)" stroke="rgb(10,172,205)" stroke-width="1" opacity="1" d="M 51.5 88 L 50.5 90 L 49 89.5 L 51.5 88 Z " /><path fill="rgb(10,172,205)" stroke="rgb(10,172,205)" stroke-width="1" opacity="1" d="M 47.5 90 L 46.5 92 L 47.5 90 Z " /><path fill="rgb(10,172,205)" stroke="rgb(10,172,205)" stroke-width="1" opacity="1" d="M 60.5 91 L 65 93.5 L 66 98.5 L 64.5 101 L 56 98 L 55.5 101 L 53.5 100 L 52.5 102 L 55 103.5 L 52.5 104 L 50.5 104 L 48 102.5 L 49.5 98 L 53 100 L 55 96.5 L 53.5 96 L 51 97.5 L 53.5 94 L 60.5 91 Z M 60 93 L 58 94 L 59 96 L 62 95 Q 63 92 60 93 Z M 65 96 L 64 99 L 65 99 L 65 96 Z M 51 100 L 49 102 L 51 103 L 51 100 Z " /><path fill="rgb(10,172,205)" stroke="rgb(10,172,205)" stroke-width="1" opacity="1" d="M 34.5 96 L 36.5 96 L 38.5 97 Q 39.8 94.8 41 97.5 L 38.5 99 L 36 98 L 36.5 101 L 38 100.5 L 36.5 105 L 35.5 103 L 33 104 L 33 106 Q 36.7 104.5 36 107.5 L 34.5 112 L 33.5 109 L 32.5 113 L 32 110 L 24 110 L 23.5 113 L 16.5 113 L 15.5 114 L 0 114 L 0 102 L 7.5 102 L 8.5 101 L 24 100 L 24.5 98 L 31.5 98 L 33.5 99 L 34.5 96 Z M 33 106 L 32 109 L 33 109 L 33 106 Z " /><path fill="rgb(10,172,205)" stroke="rgb(10,172,205)" stroke-width="1" opacity="1" d="M 46.5 103 Q 48.8 103.8 48 107.5 L 47 107.5 L 46.5 103 Z " /><path fill="rgb(10,172,205)" stroke="rgb(10,172,205)" stroke-width="1" opacity="1" d="M 44.5 107 Q 47.1 106.2 46 109.5 L 45 109.5 L 44.5 107 Z " /><path fill="rgb(17,146,204)" stroke="rgb(17,146,204)" stroke-width="1" opacity="1" d="M 204 0 L 225 0 L 225 45 L 216.5 45 L 216 48 L 208 48 L 208 51 L 200 51 L 200 56 L 198 56 Q 199.4 52 192.5 54 Q 190.6 57.8 184 56 Q 185.3 59.3 180.5 58 L 180.5 56 L 176 56 L 176 64 L 162.5 64 L 166.5 59 L 171 56.5 L 170 52 Q 166.3 53.2 168 48 L 159.5 48 L 159.5 47 L 167.5 41 L 168 45 L 173 41.5 L 171 38.5 L 176 35 Q 174.5 38.7 177.5 38 L 182.5 29 Q 184.8 28.3 184 30.5 L 189 26.5 Q 188 22 190.5 21 Q 192.8 20.3 192 22.5 L 194 21.5 Q 198.7 17.5 197 8 L 204 8 L 204 0 Z " /><path fill="rgb(17,146,204)" stroke="rgb(17,146,204)" stroke-width="1" opacity="1" d="M 159.5 65 L 160 69 L 157 70.5 Q 157.7 73.5 154 72 L 159.5 65 Z " /><path fill="rgb(17,146,204)" stroke="rgb(17,146,204)" stroke-width="1" opacity="1" d="M 149.5 73 L 148.5 75 L 149.5 73 Z " /><path fill="rgb(17,146,204)" stroke="rgb(17,146,204)" stroke-width="1" opacity="1" d="M 74.5 104 L 77 105.5 L 75.5 105 L 73.5 106 L 74.5 104 Z " /><path fill="rgb(17,146,204)" stroke="rgb(17,146,204)" stroke-width="1" opacity="1" d="M 79.5 104 L 82 104.5 L 78.5 106 L 79.5 104 Z " /><path fill="rgb(17,146,204)" stroke="rgb(17,146,204)" stroke-width="1" opacity="1" d="M 88.5 104 L 90.5 104 L 96 104.5 Q 90.6 103.6 89 106.5 L 88.5 108 L 88 106.5 L 88.5 104 Z " /><path fill="rgb(17,146,204)" stroke="rgb(17,146,204)" stroke-width="1" opacity="1" d="M 106.5 104 L 110 104.5 L 106.5 105 L 106.5 104 Z " /><path fill="rgb(17,146,204)" stroke="rgb(17,146,204)" stroke-width="1" opacity="1" d="M 64.5 106 Q 67.1 105.3 66 108 L 69.5 108 L 72.5 107 L 73.5 109 L 70.5 108 L 69.5 111 L 64.5 106 Z " /><path fill="rgb(17,146,204)" stroke="rgb(17,146,204)" stroke-width="1" opacity="1" d="M 98.5 106 L 100 108.5 L 98 107.5 L 98.5 106 Z " /><path fill="rgb(17,146,204)" stroke="rgb(17,146,204)" stroke-width="1" opacity="1" d="M 44.5 108 L 45 111.5 L 44 111.5 L 44.5 108 Z " /><path fill="rgb(17,146,204)" stroke="rgb(17,146,204)" stroke-width="1" opacity="1" d="M 113.5 109 L 111.5 112 L 113.5 109 Z " /><path fill="rgb(17,146,204)" stroke="rgb(17,146,204)" stroke-width="1" opacity="1" d="M 73.5 110 L 72 112.5 L 69.5 118 L 70 116.5 L 68.5 113 L 66 116.5 L 66.5 118 L 65 117.5 L 64.5 119 L 64 117.5 L 65 115.5 L 64 113.5 L 65 113.5 L 65.5 115 L 68.5 112 L 71 113.5 L 73.5 110 Z " /><path fill="rgb(17,146,204)" stroke="rgb(17,146,204)" stroke-width="1" opacity="1" d="M 83.5 110 L 82.5 112 L 83.5 110 Z " /><path fill="rgb(17,146,204)" stroke="rgb(17,146,204)" stroke-width="1" opacity="1" d="M 85.5 111 L 87 113.5 L 86 113.5 L 85.5 112 L 84 112.5 L 85.5 111 Z " /><path fill="rgb(17,146,204)" stroke="rgb(17,146,204)" stroke-width="1" opacity="1" d="M 43.5 114 L 45 122.5 L 43 121.5 L 43.5 114 Z " /><path fill="rgb(17,146,204)" stroke="rgb(17,146,204)" stroke-width="1" opacity="1" d="M 46.5 114 L 48 116.5 L 46 117.5 L 46.5 114 Z " /><path fill="rgb(17,146,204)" stroke="rgb(17,146,204)" stroke-width="1" opacity="1" d="M 79.5 115 L 80 119.5 L 78 118.5 L 79.5 115 Z " /><path fill="rgb(17,146,204)" stroke="rgb(17,146,204)" stroke-width="1" opacity="1" d="M 33.5 117 Q 35.9 119.1 35 124.5 L 33 125.5 L 34 120.5 L 33.5 117 Z " /><path fill="rgb(17,146,204)" stroke="rgb(17,146,204)" stroke-width="1" opacity="1" d="M 67 119 Q 69.7 117.9 69 120.5 L 65.5 126 L 64 123.5 L 67 122.5 L 67 119 Z " /><path fill="rgb(17,146,204)" stroke="rgb(17,146,204)" stroke-width="1" opacity="1" d="M 0 120 L 7.5 120 L 8 122 L 0.5 122 L 0 120 Z " /><path fill="rgb(17,146,204)" stroke="rgb(17,146,204)" stroke-width="1" opacity="1" d="M 24 120 L 32 120 L 32 125 L 24.5 125 L 24 128 L 16.5 128 L 15.5 130 L 8.5 130 L 7.5 131 L 0 131 L 0 123 L 15.5 123 L 16.5 122 L 24 122 L 24 120 Z " /><path fill="rgb(17,146,204)" stroke="rgb(17,146,204)" stroke-width="1" opacity="1" d="M 45.5 125 L 46.5 128 L 47.5 126 L 49 130.5 L 45 127.5 L 45.5 125 Z " /><path fill="rgb(17,146,204)" stroke="rgb(17,146,204)" stroke-width="1" opacity="1" d="M 35.5 126 L 36 128.5 L 35 128.5 L 35.5 126 Z " /><path fill="rgb(17,146,204)" stroke="rgb(17,146,204)" stroke-width="1" opacity="1" d="M 60.5 128 L 62 128.5 L 55.5 132 L 55.5 131 L 60.5 128 Z " /><path fill="rgb(17,146,204)" stroke="rgb(17,146,204)" stroke-width="1" opacity="1" d="M 37 131 Q 40 130 39 133 Q 36 134 37 131 Z " /><path fill="rgb(17,146,204)" stroke="rgb(17,146,204)" stroke-width="1" opacity="1" d="M 40.5 133 L 41 135.5 L 40 135.5 L 40.5 133 Z " /><path fill="rgb(5,189,205)" stroke="rgb(5,189,205)" stroke-width="1" opacity="1" d="M 138 0 L 162.5 0 L 163 0.5 L 163 8 L 160 8 L 160 16 L 155 16 L 155 24 L 150 24 L 150 26.5 L 146 31.5 L 147 33.5 L 144 35 L 143.5 33 L 138 40 L 134 38 Q 133.6 42.7 129.5 45 L 126.5 44 L 124 48 L 120.5 50 L 119.5 48 L 112.5 56 L 111.5 53 L 106.5 60 L 101 62.5 L 101 64 L 98 64 Q 99.1 66.7 96.5 66 Q 94.2 70.1 88 69 Q 89.8 73.9 83.5 72 L 74 78.5 L 74 80 L 70 80 L 70 82 L 66.5 82 Q 63.4 85.6 56 84 Q 54.8 87 58.5 86 L 58.5 87 L 51.5 88 L 46 91.5 L 41.5 97 L 39.5 96 L 37.5 96 Q 33.8 95.3 33 97.5 L 33.5 99 L 24 98 L 23.5 100 L 16.5 100 L 15.5 101 L 0 102 L 0 90 L 7.5 90 L 8.5 89 L 16 89 L 16 86 L 23.5 86 L 24.5 84 L 39.5 84 L 42 80.5 L 41 79.5 L 44 76.5 Q 43.1 73.1 48.5 75 L 52 74 Q 50.6 70.3 56.5 72 L 59 71 Q 57.6 67.3 63.5 69 L 72 64.5 L 74.5 61 L 80 60 L 82 56 L 85.5 56 Q 88.8 54.8 88 51 L 98.5 48 Q 99.7 44.2 104 45 Q 103 41.2 105.5 40 L 112 40 L 112 32 L 120 32 L 120 29.5 L 124 26.5 L 125.5 24 L 128 24 L 128 20 Q 132.1 21.3 131 18 L 136 18 L 136 8.5 L 138 7.5 L 138 0 Z M 142 30 Q 141 33 144 32 Q 145 29 142 30 Z M 58 82 L 58 83 L 63 83 L 58 82 Z M 47 88 L 44 90 L 47 90 L 47 88 Z M 44 90 L 40 95 Q 39 97 42 96 L 44 94 L 44 92 L 44 90 Z " /><path fill="rgb(5,189,205)" stroke="rgb(5,189,205)" stroke-width="1" opacity="1" d="M 61.5 86 L 64 86.5 Q 61.9 89.8 61.5 86 Z " /><path fill="rgb(5,189,205)" stroke="rgb(5,189,205)" stroke-width="1" opacity="1" d="M 54.5 93 L 55.5 95 L 54.5 93 Z " /><path fill="rgb(5,189,205)" stroke="rgb(5,189,205)" stroke-width="1" opacity="1" d="M 59.5 93 L 62 93.5 L 59.5 94 L 59.5 93 Z " /><path fill="rgb(5,189,205)" stroke="rgb(5,189,205)" stroke-width="1" opacity="1" d="M 58.5 95 L 61 95.5 L 58.5 96 L 58.5 95 Z " /><path fill="rgb(5,189,205)" stroke="rgb(5,189,205)" stroke-width="1" opacity="1" d="M 36 98 Q 38.7 96.9 38 99.5 L 36 100.5 L 36 98 Z " /><path fill="rgb(5,189,205)" stroke="rgb(5,189,205)" stroke-width="1" opacity="1" d="M 90.5 106 L 89.5 108 L 90.5 106 Z " /><path fill="rgb(25,159,210)" stroke="rgb(25,159,210)" stroke-width="1" opacity="1" d="M 166 40 L 172.5 40 L 173 41.5 L 168 45 L 167.5 41 L 166 41.5 L 166 40 Z " /><path fill="rgb(25,159,210)" stroke="rgb(25,159,210)" stroke-width="1" opacity="1" d="M 152 48 L 168 48 Q 166.8 53.3 170 52.5 L 170 55.5 Q 172.3 56.8 169.5 58 L 162 63.5 L 163 65.5 L 160 67 L 159.5 65 L 154 72 Q 149.4 70.8 148 73.5 L 146.5 76 L 143.5 75 L 140 77.5 L 138.5 80 L 131.5 80 L 131 81.5 L 128 83 Q 129.3 86 125.5 85 L 124 88 L 117.5 88 L 117 89.5 L 113.5 93 Q 109 92 108 94.5 Q 108.9 97.9 103.5 96 L 96.5 101 L 94.5 100 L 92 104 Q 87.8 103 86.5 106 Q 85 102.5 83.5 105 L 79.5 104 L 79.5 106 L 78 105.5 L 74.5 110 L 75 108.5 L 77 105.5 L 75.5 106 Q 73.3 105.3 74 107.5 L 72 111.5 L 72.5 113 L 70.5 110 L 72 109.5 L 66.5 108 L 66.5 109 L 69 110.5 L 70 112.5 L 69 114.5 L 70 116.5 L 69 116.5 L 68.5 115 L 68 117.5 L 68.5 119 L 65.5 115 L 64.5 117 L 62.5 116 L 60 120 L 48.5 120 L 48 118.5 L 47 118.5 L 46 121.5 L 46.5 123 L 44 120.5 L 43 111.5 L 45 111.5 L 47 108.5 L 45 105.5 L 47 106.5 L 47.5 108 L 48.5 103 L 50.5 104 L 49 101.5 L 51 99.5 L 50 97.5 Q 51.8 99.1 53.5 96 L 55 96.5 L 51 100.5 L 51 102.5 L 54.5 104 L 53.5 102 L 52 101.5 L 54.5 100 L 56 100.5 Q 54.8 96.8 58.5 98 L 64 100 L 63 104.5 L 65.5 108 L 69 106.5 L 67 105.5 L 69.5 104 L 69.5 106 Q 72.1 106.8 71 103.5 L 71.5 101 Q 73.8 101.8 73 99.5 L 72 93 L 77 89.5 L 77 88 L 83.5 88 L 84 86.5 L 88 85 L 88 83 L 92 83 Q 90.9 80.3 93.5 81 L 100 78.5 L 101.5 76 L 107 73.5 L 107.5 72 L 116.5 72 L 117 70.5 L 120 69 L 120 64 L 128.5 64 L 134 57.5 L 133.5 56 L 135.5 56 L 147.5 56 L 152 51.5 L 152 48 Z M 73 104 Q 71 107 74 106 L 73 104 Z M 72 106 L 70 108 L 73 108 L 72 106 Z M 65 109 L 64 112 L 67 115 L 68 114 Q 64 112 67 111 L 65 109 Z M 47 114 L 46 118 L 48 117 L 47 114 Z " /><path fill="rgb(25,159,210)" stroke="rgb(25,159,210)" stroke-width="1" opacity="1" d="M 178.5 56 L 181 56.5 L 177.5 58 L 178.5 56 Z " /><path fill="rgb(25,159,210)" stroke="rgb(25,159,210)" stroke-width="1" opacity="1" d="M 57.5 94 L 62 94.5 L 57.5 95 L 57.5 94 Z " /><path fill="rgb(25,159,210)" stroke="rgb(25,159,210)" stroke-width="1" opacity="1" d="M 63.5 95 L 66 95.5 L 65 98.5 L 65.5 100 L 63.5 95 Z " /><path fill="rgb(25,159,210)" stroke="rgb(25,159,210)" stroke-width="1" opacity="1" d="M 149.5 100 L 148.5 102 L 149.5 100 Z " /><path fill="rgb(25,159,210)" stroke="rgb(25,159,210)" stroke-width="1" opacity="1" d="M 34 104 L 37 105.5 L 34 106 L 34 104 Z " /><path fill="rgb(25,159,210)" stroke="rgb(25,159,210)" stroke-width="1" opacity="1" d="M 97.5 104 L 99 104.5 L 96.5 106 L 97.5 104 Z " /><path fill="rgb(25,159,210)" stroke="rgb(25,159,210)" stroke-width="1" opacity="1" d="M 32.5 106 L 34 111.5 L 33 111.5 L 32.5 106 Z " /><path fill="rgb(25,159,210)" stroke="rgb(25,159,210)" stroke-width="1" opacity="1" d="M 24 110 L 32 110 Q 30.5 114.5 35 113 L 35 118.5 L 34 118.5 L 33.5 117 L 33 119.5 L 33.5 121 L 24 120 L 23.5 122 L 16.5 122 L 15.5 123 L 0.5 123 L 0.5 122 L 7.5 122 L 8 120 L 0 120 L 0 114 L 24 113 L 24 110 Z " /><path fill="rgb(25,159,210)" stroke="rgb(25,159,210)" stroke-width="1" opacity="1" d="M 84.5 111 L 84 112.5 L 83.5 115 L 83 112.5 L 84.5 111 Z " /><path fill="rgb(25,159,210)" stroke="rgb(25,159,210)" stroke-width="1" opacity="1" d="M 65.5 123 L 66.5 125 L 65.5 123 Z " /><path fill="rgb(25,159,210)" stroke="rgb(25,159,210)" stroke-width="1" opacity="1" d="M 24.5 125 L 32 125.5 L 24.5 126 L 24.5 125 Z " /><path fill="rgb(36,133,211)" stroke="rgb(36,133,211)" stroke-width="1" opacity="1" d="M 216 45 L 225 45 L 225 70 L 216.5 70 Q 217.3 73.4 208.5 72 Q 207 74.5 201.5 73 L 200 72.5 L 200 76 L 192 76 L 192 80 L 184.5 80 L 183.5 81 L 176 81 Q 177.1 83.7 174.5 83 L 171 88 L 162.5 88 Q 163.1 90.8 160 90 Q 161 87 158 88 L 152 95.5 L 154 96.5 Q 152.8 99.2 151.5 97 Q 149.3 96.3 150 98.5 L 144 102 L 144 100 Q 147.8 101.5 147 98.5 L 144 97.5 Q 144.7 94.9 142 96 L 135.5 104 L 131 107.5 Q 133.3 108.8 130.5 110 L 130 107.5 L 131 104 Q 128.3 102.9 129 105.5 L 125.5 107 L 124.5 104 Q 123.3 106.3 118.5 105 L 114.5 109 L 113 108.5 L 111.5 111 L 112 107.5 Q 113.1 104.2 110.5 105 L 106.5 104 L 104 105 L 102 112.5 Q 104.5 114 101 115.5 L 102 117.5 L 101 121 L 97.5 123 L 95 122 L 95 120 Q 97.7 121.1 97 118.5 L 94 116.5 L 96.5 112 L 98.5 113 L 99 111 L 96 109.5 L 97 105.5 Q 95.8 103 92 104 L 94.5 100 L 97.5 101 L 103.5 96 L 108 96 L 109.5 93 Q 116 94 117 89.5 L 117 88 L 123.5 88 L 124 86.5 L 128 85 Q 126.9 82.3 129.5 83 L 131 80 L 138.5 80 L 140 78.5 L 141.5 76 L 143.5 75 L 146.5 76 L 149 74.5 Q 146.8 73.3 149.5 72 L 156.5 72 L 157 70.5 L 160 69 Q 158.9 66.3 161.5 67 L 163 64 L 176 64 L 176 56.5 L 177.5 56 L 177.5 58 L 183.5 58 Q 182.6 54.8 190.5 56 Q 192.2 52.5 198 54 Q 197 57 200 56 L 200 51 L 208 51 L 208 48 L 216 48 L 216 45 Z M 147 96 L 147 97 L 149 97 L 147 96 Z M 116 104 Q 113 106 116 107 Q 119 106 116 104 Z M 99 106 Q 96 110 100 109 L 99 106 Z M 98 114 L 97 118 L 98 118 L 98 114 Z " /><path fill="rgb(36,133,211)" stroke="rgb(36,133,211)" stroke-width="1" opacity="1" d="M 89.5 104 L 90.5 106 L 88.5 106 L 87 105.5 L 89.5 104 Z " /><path fill="rgb(36,133,211)" stroke="rgb(36,133,211)" stroke-width="1" opacity="1" d="M 142.5 104 L 143 106 L 141 105.5 L 142.5 104 Z " /><path fill="rgb(36,133,211)" stroke="rgb(36,133,211)" stroke-width="1" opacity="1" d="M 72.5 105 L 71.5 107 L 72.5 105 Z " /><path fill="rgb(36,133,211)" stroke="rgb(36,133,211)" stroke-width="1" opacity="1" d="M 75.5 106 L 77 106.5 L 75 107 L 72.5 111 L 69 109.5 L 71.5 109 Q 72.8 111.2 74 108.5 L 75.5 106 Z " /><path fill="rgb(36,133,211)" stroke="rgb(36,133,211)" stroke-width="1" opacity="1" d="M 127.5 109 L 128 111 L 131 112.5 L 130.5 114 L 130 112 L 127 110.5 L 127.5 109 Z " /><path fill="rgb(36,133,211)" stroke="rgb(36,133,211)" stroke-width="1" opacity="1" d="M 64.5 110 L 67 110.5 L 64.5 111 L 64.5 110 Z " /><path fill="rgb(36,133,211)" stroke="rgb(36,133,211)" stroke-width="1" opacity="1" d="M 82.5 110 L 84.5 110 L 87 111.5 L 86 113.5 L 86 115.5 L 87 117.5 L 84 122.5 L 84.5 124 L 83 124.5 Q 85.3 125.8 82.5 127 L 79.5 129 L 77 123.5 L 78.5 119 L 80 119.5 L 80.5 113 L 81.5 116 L 82.5 114 L 84 114.5 L 86 111.5 L 84.5 111 L 82 112.5 L 82.5 110 Z " /><path fill="rgb(36,133,211)" stroke="rgb(36,133,211)" stroke-width="1" opacity="1" d="M 69.5 111 Q 72.1 110.2 71 113.5 L 70 113.5 L 69.5 111 Z " /><path fill="rgb(36,133,211)" stroke="rgb(36,133,211)" stroke-width="1" opacity="1" d="M 65.5 112 Q 67.8 111.3 67 113.5 L 65.5 112 Z " /><path fill="rgb(36,133,211)" stroke="rgb(36,133,211)" stroke-width="1" opacity="1" d="M 116.5 113 L 118 116 L 116 115.5 L 116.5 113 Z " /><path fill="rgb(36,133,211)" stroke="rgb(36,133,211)" stroke-width="1" opacity="1" d="M 68.5 115 L 70 118.5 L 67 119.5 Q 68.7 124.3 64.5 123 L 65 124.5 L 63.5 128 L 60 128.5 L 60.5 130 L 58.5 130 L 52 132 L 51.5 130 L 49.5 131 Q 46.6 129.4 47.5 124 L 46.5 128 L 46 125 Q 43.3 126.1 44 123.5 L 47 122.5 L 47.5 118 L 48 120 L 59.5 120 L 60 118.5 L 64 116 L 64.5 120 L 65.5 117 L 68 118 L 68.5 115 Z " /><path fill="rgb(36,133,211)" stroke="rgb(36,133,211)" stroke-width="1" opacity="1" d="M 114.5 116 L 116 118.5 L 114 117.5 L 114.5 116 Z " /><path fill="rgb(36,133,211)" stroke="rgb(36,133,211)" stroke-width="1" opacity="1" d="M 32.5 121 L 33.5 128 L 34 125 L 36 125.5 L 35 128.5 L 37 128.5 L 38 130.5 L 37 133 Q 41.1 131.3 40 135.5 Q 41.8 133.9 43.5 137 L 44.5 136 L 47.5 139 L 48.5 138 Q 52.3 137 51 140 L 46.5 140 L 40.5 143 L 39.5 142 L 32 142 L 32 144 L 24.5 144 L 23.5 146 L 16.5 146 L 15.5 147 L 0 147 L 0 131 L 7.5 131 L 8.5 130 L 16 130 L 16.5 128 L 23.5 128 L 24.5 126 L 32 126 L 32.5 121 Z M 40 138 L 40 141 L 42 140 Q 43 137 40 138 Z " /><path fill="rgb(36,133,211)" stroke="rgb(36,133,211)" stroke-width="1" opacity="1" d="M 93.5 124 L 94 126.5 L 93 126.5 L 93.5 124 Z " /><path fill="rgb(36,133,211)" stroke="rgb(36,133,211)" stroke-width="1" opacity="1" d="M 69.5 127 L 72 131.5 L 71 134 L 68.5 135 L 66.5 134 L 62 136.5 L 61.5 139 L 60 138.5 L 58.5 141 L 56.5 142 L 57.5 140 Q 60.1 140.8 59 137.5 L 58.5 136 Q 60 138.5 61.5 135 Q 63.8 135.8 63 133.5 L 67.5 129 L 69 129.5 L 69.5 127 Z M 70 130 Q 68 133 71 132 L 70 130 Z M 66 132 L 64 134 L 66 134 L 66 132 Z " /><path fill="rgb(36,133,211)" stroke="rgb(36,133,211)" stroke-width="1" opacity="1" d="M 72.5 133 L 73.5 135 Q 70.7 135.7 72.5 133 Z " /><path fill="rgb(36,133,211)" stroke="rgb(36,133,211)" stroke-width="1" opacity="1" d="M 53 138 Q 57.1 136.7 56 140 Q 51.9 141.3 53 138 Z " /><path fill="rgb(36,133,211)" stroke="rgb(36,133,211)" stroke-width="1" opacity="1" d="M 50.5 142 L 54 142.5 L 50.5 143 L 50.5 142 Z " /><path fill="rgb(50,111,212)" stroke="rgb(50,111,212)" stroke-width="1" opacity="1" d="M 216 70 L 225 70 L 225 95 L 208 96 L 207.5 98 L 200 98 L 199.5 96 L 192 96 Q 194 102 188 100 L 188 98 L 180.5 98 Q 181.3 94.8 176 96 Q 177.8 100.5 172.5 99 L 173.5 96 L 168 96 L 168 101 L 165 101 Q 166.1 98.3 163.5 99 L 161.5 99 Q 158.2 97.9 159 100.5 L 159 102.5 L 159 111.5 L 160 112.5 L 157 110.5 L 158 102.5 Q 157.3 98.3 151.5 99 L 147 102.5 L 145.5 110 L 144.5 105 L 144 107 Q 141.3 105.9 142 108.5 L 144 108.5 L 142 111.5 L 141.5 120 L 141 111.5 L 141 109.5 Q 139.5 105.1 142.5 106 L 143.5 104 L 140.5 105 L 137.5 104 L 134.5 106 L 142 97.5 Q 141.3 94.9 144 96 Q 142.5 101.4 145.5 103 L 151.5 97 Q 152.8 99.2 154 96.5 L 152 95.5 L 158 88 L 162 90 L 162 88 L 170.5 88 L 171 86.5 L 176 83 L 176.5 81 L 183.5 81 L 184.5 80 L 192 80 L 192 76 L 200 76 L 200 72.5 L 201.5 73 L 216 72 L 216 70 Z M 200 88 L 200 96 L 206 96 L 206 90 Q 202 91 203 88 L 200 88 Z M 184 90 L 184 96 L 186 96 L 186 90 L 184 90 Z M 155 97 Q 155 101 157 98 L 155 97 Z M 159 97 L 157 100 L 159 99 L 159 97 Z " /><path fill="rgb(50,111,212)" stroke="rgb(50,111,212)" stroke-width="1" opacity="1" d="M 146.5 96 L 148 96.5 L 146 97.5 L 146.5 99 Q 143.5 97.5 146.5 96 Z " /><path fill="rgb(50,111,212)" stroke="rgb(50,111,212)" stroke-width="1" opacity="1" d="M 152.5 103 L 154 106.5 L 153 106.5 L 152.5 103 Z " /><path fill="rgb(50,111,212)" stroke="rgb(50,111,212)" stroke-width="1" opacity="1" d="M 164.5 104 L 168 105.5 L 165.5 106 L 164.5 104 Z " /><path fill="rgb(50,111,212)" stroke="rgb(50,111,212)" stroke-width="1" opacity="1" d="M 174.5 104 L 179 104.5 L 176.5 106 L 174.5 104 Z " /><path fill="rgb(50,111,212)" stroke="rgb(50,111,212)" stroke-width="1" opacity="1" d="M 129.5 105 L 130 110.5 L 129 110.5 L 129.5 105 Z " /><path fill="rgb(50,111,212)" stroke="rgb(50,111,212)" stroke-width="1" opacity="1" d="M 162.5 106 Q 164.8 105.3 164 107.5 L 162.5 106 Z " /><path fill="rgb(50,111,212)" stroke="rgb(50,111,212)" stroke-width="1" opacity="1" d="M 133.5 107 L 134 108.5 L 132 115 L 129 113.5 L 129.5 112 L 130.5 114 L 133.5 107 Z " /><path fill="rgb(50,111,212)" stroke="rgb(50,111,212)" stroke-width="1" opacity="1" d="M 160.5 108 L 161.5 110 Q 158.7 110.7 160.5 108 Z " /><path fill="rgb(50,111,212)" stroke="rgb(50,111,212)" stroke-width="1" opacity="1" d="M 152.5 109 L 153 111.5 L 152 111.5 L 152.5 109 Z " /><path fill="rgb(50,111,212)" stroke="rgb(50,111,212)" stroke-width="1" opacity="1" d="M 126.5 111 L 127 114.5 L 126 114.5 L 126.5 111 Z " /><path fill="rgb(50,111,212)" stroke="rgb(50,111,212)" stroke-width="1" opacity="1" d="M 144.5 111 L 146.5 114 L 148 113.5 L 144.5 118 L 144 116.5 Q 148 114.5 144 112.5 L 144.5 111 Z " /><path fill="rgb(50,111,212)" stroke="rgb(50,111,212)" stroke-width="1" opacity="1" d="M 115.5 113 L 118 113.5 L 115 115 L 115.5 113 Z " /><path fill="rgb(50,111,212)" stroke="rgb(50,111,212)" stroke-width="1" opacity="1" d="M 113.5 116 L 115.5 122 L 116.5 119 L 117 121.5 L 115.5 127 L 114.5 122 L 113.5 124 L 113 122.5 L 114 119 L 112 118.5 L 113.5 116 Z " /><path fill="rgb(50,111,212)" stroke="rgb(50,111,212)" stroke-width="1" opacity="1" d="M 117.5 116 L 116.5 118 L 117.5 116 Z " /><path fill="rgb(50,111,212)" stroke="rgb(50,111,212)" stroke-width="1" opacity="1" d="M 125.5 116 L 126 118.5 L 125 118.5 L 125.5 116 Z " /><path fill="rgb(50,111,212)" stroke="rgb(50,111,212)" stroke-width="1" opacity="1" d="M 95.5 117 L 96.5 119 Q 93.7 119.7 95.5 117 Z " /><path fill="rgb(50,111,212)" stroke="rgb(50,111,212)" stroke-width="1" opacity="1" d="M 130.5 118 L 131 119.5 Q 129.5 122.5 128 119.5 L 130 119.5 L 130.5 118 Z " /><path fill="rgb(50,111,212)" stroke="rgb(50,111,212)" stroke-width="1" opacity="1" d="M 147.5 118 L 148.5 120 L 147.5 118 Z " /><path fill="rgb(50,111,212)" stroke="rgb(50,111,212)" stroke-width="1" opacity="1" d="M 154.5 118 L 157 118.5 L 154.5 119 L 154.5 118 Z " /><path fill="rgb(50,111,212)" stroke="rgb(50,111,212)" stroke-width="1" opacity="1" d="M 94.5 120 L 96 122.5 L 94.5 125 L 93 122.5 L 94.5 120 Z " /><path fill="rgb(50,111,212)" stroke="rgb(50,111,212)" stroke-width="1" opacity="1" d="M 111.5 120 L 111 121.5 L 112 124.5 L 111 124.5 L 110.5 123 L 109.5 125 L 109 123.5 L 111.5 120 Z " /><path fill="rgb(50,111,212)" stroke="rgb(50,111,212)" stroke-width="1" opacity="1" d="M 124.5 120 L 125 122.5 L 124 122.5 L 124.5 120 Z " /><path fill="rgb(50,111,212)" stroke="rgb(50,111,212)" stroke-width="1" opacity="1" d="M 126.5 120 L 129 123.5 L 127 127 L 125 126.5 Q 128.5 125 126 123.5 L 127 121.5 L 126.5 120 Z " /><path fill="rgb(50,111,212)" stroke="rgb(50,111,212)" stroke-width="1" opacity="1" d="M 145.5 120 L 147.5 123 L 145 121.5 L 144.5 123 L 144 121.5 L 145.5 120 Z " /><path fill="rgb(50,111,212)" stroke="rgb(50,111,212)" stroke-width="1" opacity="1" d="M 83.5 124 L 82.5 126 L 83.5 124 Z " /><path fill="rgb(50,111,212)" stroke="rgb(50,111,212)" stroke-width="1" opacity="1" d="M 96.5 124 L 98 125.5 L 94.5 129 L 93.5 127 L 95 127.5 L 96.5 124 Z " /><path fill="rgb(50,111,212)" stroke="rgb(50,111,212)" stroke-width="1" opacity="1" d="M 143.5 125 L 144.5 127 Q 141.7 127.7 143.5 125 Z " /><path fill="rgb(50,111,212)" stroke="rgb(50,111,212)" stroke-width="1" opacity="1" d="M 110.5 126 L 111 128.5 L 110 130.5 L 112 135.5 L 111 135.5 Q 112.1 132.2 109.5 133 L 107 132 L 107.5 128 L 108.5 131 L 110.5 126 Z " /><path fill="rgb(50,111,212)" stroke="rgb(50,111,212)" stroke-width="1" opacity="1" d="M 62.5 128 L 61.5 130 L 62.5 128 Z " /><path fill="rgb(50,111,212)" stroke="rgb(50,111,212)" stroke-width="1" opacity="1" d="M 99.5 128 L 100 129.5 L 98 130.5 L 99.5 128 Z " /><path fill="rgb(50,111,212)" stroke="rgb(50,111,212)" stroke-width="1" opacity="1" d="M 68.5 129 L 73 132.5 L 72 135 L 74 135 Q 72.9 132.3 75.5 133 L 74.5 136 L 77 136.5 Q 76 139 71.5 138 L 63 143.5 L 63.5 145 L 56.5 145 L 55.5 147 L 48.5 147 L 47.5 149 L 40 149 L 40 152 L 47.5 152 L 48 154 L 16 154.5 L 32 155.5 L 16 156 L 15.5 161 L 0 161 L 0 147 L 15.5 147 L 16.5 146 L 24 146 L 24 144 L 31.5 144 L 32.5 142 L 39.5 142 L 41.5 142 L 43 142.5 L 42.5 144 L 46 143.5 L 45 141.5 L 47.5 140 L 47.5 142 L 53.5 143 L 57 141.5 L 56.5 140 L 60.5 141 L 63 135.5 L 62.5 134 L 65.5 136 L 66.5 134 L 68.5 135 L 70 134.5 Q 69.3 136.8 71.5 136 L 71 134.5 L 68.5 129 Z M 63 141 L 61 142 L 61 143 L 64 142 L 63 141 Z M 56 143 L 56 144 L 60 144 L 56 143 Z " /><path fill="rgb(50,111,212)" stroke="rgb(50,111,212)" stroke-width="1" opacity="1" d="M 84 129 Q 86.7 127.9 86 130.5 L 88 132.5 L 84.5 136 L 84 133.5 L 85.5 131 Q 82.9 131.7 84 129 Z " /><path fill="rgb(50,111,212)" stroke="rgb(50,111,212)" stroke-width="1" opacity="1" d="M 82.5 131 L 83 133 L 81 132.5 L 82.5 131 Z " /><path fill="rgb(50,111,212)" stroke="rgb(50,111,212)" stroke-width="1" opacity="1" d="M 95.5 132 L 98.5 133 L 100.5 132 L 100.5 133 L 99 133.5 L 100 135.5 L 97.5 134 L 95 135.5 Q 95.8 133.3 93.5 134 L 90.5 135 L 90.5 134 L 95.5 132 Z " /><path fill="rgb(50,111,212)" stroke="rgb(50,111,212)" stroke-width="1" opacity="1" d="M 104.5 133 Q 108.9 131.5 108 134.5 L 108.5 136 Q 105.9 136.7 107 134 L 104.5 134 L 101.5 136 L 101.5 135 L 104.5 133 Z " /><path fill="rgb(50,111,212)" stroke="rgb(50,111,212)" stroke-width="1" opacity="1" d="M 41.5 134 L 43.5 137 L 41.5 134 Z " /><path fill="rgb(50,111,212)" stroke="rgb(50,111,212)" stroke-width="1" opacity="1" d="M 81.5 134 L 82.5 136 Q 79.7 136.7 81.5 134 Z " /><path fill="rgb(50,111,212)" stroke="rgb(50,111,212)" stroke-width="1" opacity="1" d="M 116.5 135 L 119 135.5 L 116.5 136 L 116.5 135 Z " /><path fill="rgb(50,111,212)" stroke="rgb(50,111,212)" stroke-width="1" opacity="1" d="M 59.5 136 L 58.5 138 L 56.5 139 L 55.5 137 L 59.5 136 Z " /><path fill="rgb(50,111,212)" stroke="rgb(50,111,212)" stroke-width="1" opacity="1" d="M 46.5 137 L 49 137.5 Q 46.9 140.8 46.5 137 Z " /><path fill="rgb(50,111,212)" stroke="rgb(50,111,212)" stroke-width="1" opacity="1" d="M 40 138 Q 43 137 42 140 Q 39 141 40 138 Z " /><path fill="rgb(50,111,212)" stroke="rgb(50,111,212)" stroke-width="1" opacity="1" d="M 51 138 Q 54 137 53 140 Q 50 141 51 138 Z " /><path fill="rgb(241,246,248)" stroke="rgb(241,246,248)" stroke-width="1" opacity="1" d="M 59.5 87 L 70 90 L 72 93.5 L 72 99.5 L 68.5 105 L 64 106 L 66 99.5 L 66 94.5 Q 64.7 90.3 58.5 91 L 48 99.5 L 43 110.5 L 43 122.5 Q 44.5 129 49.5 132 L 58.5 132 L 68 123.5 L 73 111.5 L 78.5 106 L 85.5 105 L 89.5 108 Q 90.3 104.3 95.5 105 L 97 107.5 L 93 120.5 L 93 129 L 98 126.5 L 102 118.5 L 104 106.5 L 105.5 105 Q 109.3 104.3 110 106.5 L 111 110.5 L 110 114.5 L 111 114.5 L 117.5 106 L 123.5 105 Q 127.3 107.3 126 114.5 Q 122.7 119.4 124 128 L 130 123.5 Q 134.1 119 133 109.5 L 136.5 105 Q 141 104.5 141 105.5 L 141 123.5 L 143.5 128 L 151 116.5 Q 146.8 113.8 146 107.5 L 147 103.5 L 150.5 100 L 154.5 99 Q 158.9 100.6 158 107.5 L 156 114 L 159.5 114 L 169.5 105 L 174.5 105 L 178.5 108 Q 179.2 104.3 184.5 105 L 186 107.5 L 182 120.5 L 182 129 L 186 127.5 L 188 122 Q 191.7 120.7 190 126.5 L 186.5 131 Q 184.2 134.2 177.5 133 L 174.5 128 L 169.5 133 L 163.5 133 L 161 132 Q 157.9 128.4 159 119.5 L 160 116 L 154 117 Q 150.9 126 143.5 132 L 138.5 133 L 136 130.5 L 133.5 121 L 126.5 132 L 119.5 133 Q 115.6 130.9 116 124.5 L 119 111 L 113 115.5 Q 107.6 122.8 106 133 L 101 133 L 101 131.5 L 99.5 128 L 94.5 133 L 88.5 133 L 85.5 128 L 80.5 133 L 74.5 133 L 72 132 L 69.5 126 L 62.5 134 Q 57.7 138.7 46.5 137 L 38 130.5 Q 33 123.9 35 110.5 Q 38 98.5 46.5 92 L 51.5 89 L 59.5 87 Z M 153 103 L 151 105 Q 150 110 153 112 L 154 109 Q 155 102 153 103 Z M 84 109 L 80 113 L 77 121 Q 76 127 80 129 L 83 128 L 87 119 L 87 111 L 84 109 Z M 173 109 Q 167 113 166 122 L 167 128 L 171 129 Q 175 125 176 119 L 176 111 L 173 109 Z " /><path fill="rgb(56,110,223)" stroke="rgb(56,110,223)" stroke-width="1" opacity="1" d="M 200 88 L 203 88 Q 201.9 91.3 206 90 L 206 96 L 200 96 L 199.5 99 L 192 99 L 192 96 L 200 96 L 200 88 Z " /><path fill="rgb(56,110,223)" stroke="rgb(56,110,223)" stroke-width="1" opacity="1" d="M 184 90 L 186 90 L 186 96 L 184 96 L 184 90 Z " /><path fill="rgb(56,110,223)" stroke="rgb(56,110,223)" stroke-width="1" opacity="1" d="M 157.5 96 L 160 96.5 L 157.5 100 L 154 97.5 L 157.5 96 Z " /><path fill="rgb(56,110,223)" stroke="rgb(56,110,223)" stroke-width="1" opacity="1" d="M 168 96 L 174 96.5 L 172.5 99 Q 177.8 100.5 176 96 L 180 96 L 180 98 L 187.5 98 Q 186.5 101 191.5 100 L 191.5 101 L 184.5 101 L 184 104 L 180.5 104 L 178.5 104 L 172.5 105 L 169 104 L 168.5 106 L 164.5 104 L 165 105.5 L 163.5 109 L 160.5 108 L 160 110 L 162 110.5 L 157 113 L 157.5 111 L 159 111.5 L 159 102.5 L 158 101.5 L 162.5 98 L 165 99 Q 163.9 102.3 168 101 L 168 96 Z M 163 106 L 164 108 Q 165 105 163 106 Z " /><path fill="rgb(56,110,223)" stroke="rgb(56,110,223)" stroke-width="1" opacity="1" d="M 144 98 L 148 100.5 L 145 103.5 L 145 105.5 Q 143.1 110.9 146.5 110 L 147 112.5 L 149 118.5 L 148 121 L 146 120.5 L 147.5 118 L 144 120.5 L 145 123.5 L 143 124.5 L 142 112.5 L 144 108.5 L 144 106.5 L 143 104.5 L 146.5 100 Q 142.8 101 144 98 Z M 146 115 L 144 118 L 146 117 L 146 115 Z " /><path fill="rgb(56,110,223)" stroke="rgb(56,110,223)" stroke-width="1" opacity="1" d="M 153.5 103 L 153 104.5 Q 154.9 109.9 151.5 109 L 152 107.5 Q 151.3 103.8 153.5 103 Z " /><path fill="rgb(56,110,223)" stroke="rgb(56,110,223)" stroke-width="1" opacity="1" d="M 115.5 104 L 115.5 107 L 113 106.5 L 115.5 104 Z " /><path fill="rgb(56,110,223)" stroke="rgb(56,110,223)" stroke-width="1" opacity="1" d="M 129.5 104 Q 132.1 103.2 131 106.5 L 130 106.5 L 129.5 104 Z " /><path fill="rgb(56,110,223)" stroke="rgb(56,110,223)" stroke-width="1" opacity="1" d="M 134.5 104 L 134 105.5 L 132 111.5 L 132.5 113 L 130 112 L 134.5 104 Z " /><path fill="rgb(56,110,223)" stroke="rgb(56,110,223)" stroke-width="1" opacity="1" d="M 128.5 106 L 129 110.5 L 129 112.5 L 130.5 115 L 133 115.5 L 131 116 L 129.5 120 L 128 119.5 Q 127.3 121.8 129.5 121 L 129.5 122 L 127.5 121 L 126 123.5 L 128 123.5 L 124.5 126 L 125 122.5 L 128 109.5 L 127 107.5 L 128.5 106 Z " /><path fill="rgb(56,110,223)" stroke="rgb(56,110,223)" stroke-width="1" opacity="1" d="M 174.5 113 L 173.5 115 L 174.5 113 Z " /><path fill="rgb(56,110,223)" stroke="rgb(56,110,223)" stroke-width="1" opacity="1" d="M 114.5 114 L 117 116.5 L 116 119.5 L 115 126.5 L 116 129.5 L 117 131.5 L 116 134 L 122 135.5 L 119.5 136 L 116.5 135 L 114.5 136 Q 112.2 130.8 110 134.5 L 109.5 136 L 108 133 Q 105.3 134.1 106 131.5 L 107.5 132 L 111 133 L 109.5 129 L 108.5 131 L 108 127.5 L 112 120.5 L 111.5 119 Q 113.2 121.8 115 117.5 L 114.5 114 Z M 115 119 L 114 122 L 115 122 L 115 119 Z M 111 126 L 110 129 L 111 129 L 111 126 Z " /><path fill="rgb(56,110,223)" stroke="rgb(56,110,223)" stroke-width="1" opacity="1" d="M 95.5 119 L 98 120.5 L 96.5 120 L 95.5 119 Z " /><path fill="rgb(56,110,223)" stroke="rgb(56,110,223)" stroke-width="1" opacity="1" d="M 96.5 122 L 98.5 122 L 100 122.5 L 98 123 L 97.5 125 L 96 124.5 L 94.5 128 L 94 125.5 L 96.5 122 Z " /><path fill="rgb(56,110,223)" stroke="rgb(56,110,223)" stroke-width="1" opacity="1" d="M 154.5 122 L 153.5 124 L 154.5 122 Z " /><path fill="rgb(56,110,223)" stroke="rgb(56,110,223)" stroke-width="1" opacity="1" d="M 132.5 129 L 133 130.5 L 131 131.5 L 132.5 129 Z " /><path fill="rgb(56,110,223)" stroke="rgb(56,110,223)" stroke-width="1" opacity="1" d="M 99.5 130 L 100 131.5 L 95 134.5 L 95.5 136 L 97.5 134 L 100 135.5 L 100.5 133 L 103 133.5 L 103.5 135 L 107 134 L 108 136.5 L 104 139.5 Q 104.8 137.3 102.5 138 L 97.5 144 L 89.5 144 L 88 145.5 L 88 149 L 78.5 149 L 74.5 152 L 64 152 Q 65.1 154.7 62.5 154 Q 58.2 158.9 48 157 L 48 159 L 40.5 159 L 39.5 161 L 24.5 161 L 23.5 162 L 0.5 162 L 0.5 161 L 15.5 161 L 16.5 156 L 31.5 156 L 31.5 155 L 16 154.5 L 48 154 L 47.5 152 L 40 152 L 40 149 L 47.5 149 L 48.5 147 L 55.5 147 L 56.5 145 L 63.5 145 L 62.5 143 L 55.5 144 L 55.5 143 Q 61.2 143.7 63.5 141 L 65.5 142 L 71.5 138 Q 76 139 77 136.5 Q 77.8 134.3 75.5 135 L 74 135.5 L 75.5 134 Q 80.9 134.6 83 133 Q 81.8 130 85.5 131 L 85.5 132 L 84 132 Q 85.5 135.7 82.5 135 L 81 134.5 Q 80.1 137.5 84.5 136 L 87.5 133 L 89.5 133 L 91 133.5 L 90.5 135 Q 96.7 134.2 99.5 130 Z " /><path fill="rgb(56,110,223)" stroke="rgb(56,110,223)" stroke-width="1" opacity="1" d="M 65.5 132 L 66 134 L 64 133.5 L 65.5 132 Z " /><path fill="rgb(56,110,223)" stroke="rgb(56,110,223)" stroke-width="1" opacity="1" d="M 68.5 133 L 67.5 135 L 68.5 133 Z " /><path fill="rgb(56,110,223)" stroke="rgb(56,110,223)" stroke-width="1" opacity="1" d="M 70.5 134 L 71.5 136 Q 68.7 136.7 70.5 134 Z " /><path fill="rgb(56,110,223)" stroke="rgb(56,110,223)" stroke-width="1" opacity="1" d="M 57.5 138 Q 59.8 137.3 59 139.5 L 60 139.5 L 60.5 138 Q 63.5 139.5 60.5 141 L 56 140 Q 57.3 143 53.5 142 L 51.5 141 L 47.5 142 L 48.5 140 Q 55.7 141.8 57.5 138 Z " /><path fill="rgb(56,110,223)" stroke="rgb(56,110,223)" stroke-width="1" opacity="1" d="M 43.5 142 L 46 143.5 L 42.5 144 L 43.5 142 Z " /><path fill="rgb(69,95,222)" stroke="rgb(69,95,222)" stroke-width="1" opacity="1" d="M 216.5 95 L 225 95 L 225 112 L 216.5 112 L 216 115 L 208.5 115 L 207.5 117 L 200 117 L 199.5 120 L 192.5 120 L 190.5 120 Q 186.1 118.5 187 121.5 L 186 121.5 Q 183.4 120.1 184 115.5 L 185 112.5 L 187 104.5 L 185.5 104 L 184 104.5 L 184 101 L 191.5 101 L 192.5 99 L 199.5 99 L 200.5 98 L 208 98 L 208.5 96 L 215.5 96 L 216.5 95 Z " /><path fill="rgb(69,95,222)" stroke="rgb(69,95,222)" stroke-width="1" opacity="1" d="M 180.5 104 L 178.5 107 L 177 106.5 L 180.5 104 Z " /><path fill="rgb(69,95,222)" stroke="rgb(69,95,222)" stroke-width="1" opacity="1" d="M 162 109 L 164 109.5 L 162 110.5 L 162 109 Z " /><path fill="rgb(69,95,222)" stroke="rgb(69,95,222)" stroke-width="1" opacity="1" d="M 174.5 109 L 176 112.5 L 175.5 118 L 174 117.5 Q 175.1 120.8 172.5 120 L 171.5 123 L 170 122.5 L 171 125.5 L 170 125.5 L 169.5 124 L 168 124.5 L 167 120.5 L 168 117.5 L 172.5 110 L 174.5 109 Z M 172 111 L 172 113 L 174 112 L 172 111 Z M 173 113 L 173 115 L 175 114 L 173 113 Z " /><path fill="rgb(69,95,222)" stroke="rgb(69,95,222)" stroke-width="1" opacity="1" d="M 148.5 114 Q 152.7 115.8 150 117.5 L 149.5 119 L 148.5 114 Z " /><path fill="rgb(69,95,222)" stroke="rgb(69,95,222)" stroke-width="1" opacity="1" d="M 157.5 117 Q 159.8 116.3 159 118.5 L 157.5 117 Z " /><path fill="rgb(69,95,222)" stroke="rgb(69,95,222)" stroke-width="1" opacity="1" d="M 143.5 118 L 144.5 120 L 147 118.5 Q 147.8 120.8 145.5 120 L 146.5 122 L 149 120.5 L 145 123.5 L 143.5 118 Z " /><path fill="rgb(69,95,222)" stroke="rgb(69,95,222)" stroke-width="1" opacity="1" d="M 153 119 Q 155.7 117.9 155 120.5 L 156 120.5 L 156.5 119 L 159 120 L 158 129 L 160 129.5 Q 158.8 132.3 157.5 130 L 153.5 128 L 152.5 130 L 156 131.5 L 152.5 132 L 150 131 L 150 133 L 148 133 Q 149.1 135.7 146.5 135 Q 145 137.5 143.5 134 L 141 135.5 L 142 137.5 Q 141.5 141.5 136.5 141 L 133.5 140 L 130.5 144 L 123 145.5 Q 125.2 146.8 122.5 148 L 116 149 L 114.5 152 L 107 155 Q 108.3 158.7 102.5 157 L 101 160 L 94.5 159 L 88 160 L 88 164 L 80.5 164 L 79.5 166 L 72.5 166 L 71.5 168 L 56.5 168 L 56 170 L 48.5 170 L 47.5 172 L 24.5 172 L 23.5 173 L 0 173 L 0 162 L 23.5 162 L 24.5 161 L 40 161 L 40 159 L 47.5 159 L 48.5 157 L 57.5 157 L 64 154 L 64.5 152 L 74.5 152 L 78.5 149 L 88 149 Q 87 145.2 89.5 144 L 97.5 144 L 99 142.5 L 102.5 138 Q 104.8 137.3 104 139.5 L 108.5 136 Q 110.8 136.8 110 134.5 L 111 134.5 Q 110.3 136.8 112.5 136 L 112.5 134 L 115 134.5 L 114.5 136 L 122 135.5 L 119 134.5 Q 120.3 131.8 121.5 134 L 130 130 L 133.5 123 L 133 124.5 L 132 127.5 L 135 126.5 L 134 128.5 L 137 133 L 140.5 134 L 148.5 128 L 150 128.5 L 149 125 L 152 123.5 L 153 119 Z M 156 125 L 155 128 L 156 128 L 156 125 Z " /><path fill="rgb(69,95,222)" stroke="rgb(69,95,222)" stroke-width="1" opacity="1" d="M 141.5 120 Q 144.3 121.3 143 126.5 L 142 126.5 L 141.5 120 Z " /><path fill="rgb(69,95,222)" stroke="rgb(69,95,222)" stroke-width="1" opacity="1" d="M 183.5 120 L 184.5 122 L 183.5 120 Z " /><path fill="rgb(69,95,222)" stroke="rgb(69,95,222)" stroke-width="1" opacity="1" d="M 116.5 129 L 118 132.5 L 116 133.5 L 117 131.5 L 116.5 129 Z " /><path fill="rgb(69,95,222)" stroke="rgb(69,95,222)" stroke-width="1" opacity="1" d="M 149.5 134 L 151.5 135 L 153 134.5 L 150.5 136 L 149.5 134 Z " /><path fill="rgb(89,83,229)" stroke="rgb(89,83,229)" stroke-width="1" opacity="1" d="M 216 112 L 225 112 L 225 136 L 200.5 136 L 200 140 L 192 140 L 191.5 144 L 176.5 144 L 175.5 145 L 168 145 L 168 147.5 L 163.5 152 L 156.5 152 L 156 153.5 L 147.5 160 L 140 160 L 137.5 164 L 134.5 163 L 131.5 168 L 124.5 168 L 124 169.5 L 120.5 172 L 118.5 171 L 115 176 L 104 177 L 104 184 L 96.5 184 L 95.5 185 L 88 185 L 87.5 187 L 80 187 L 80 184 L 72 184 Q 73.5 180.3 70.5 181 L 70.5 180 L 72 179.5 L 68 176.5 L 80 176 L 79.5 174 L 64.5 174 L 64.5 173 L 72 172.5 L 64 171.5 L 72 170.5 L 64 169.5 L 72 169 L 72 166 L 79.5 166 L 80.5 164 L 88 164 Q 85.7 157.6 93.5 160 L 95.5 159 L 101 160 L 102.5 157 L 107 157 Q 105.9 154.3 108.5 155 L 116 150.5 Q 115.1 147.1 120.5 149 L 124 146.5 L 123.5 145 L 130.5 144 L 132 142.5 L 133.5 140 L 138.5 141 L 142 136.5 Q 139.8 135.2 142.5 134 L 144.5 133 L 148 135 L 148 133 Q 150.7 134.1 150 131.5 L 148.5 127 L 151.5 132 L 156 131.5 L 152 129.5 L 155 128 L 155.5 125 L 156 127.5 Q 153.8 128.8 156.5 130 L 161.5 133 L 165 133 L 165.5 135 L 168.5 133 Q 170 135.5 171.5 132 L 174.5 133 L 175.5 131 L 177.5 134 L 181.5 134 L 183.5 133 L 185 133.5 L 187.5 130 Q 190.5 130.7 189 127 L 191.5 127 L 191 125.5 L 192 123.5 L 190 122.5 L 191.5 119 L 192.5 120 L 200 120 L 200 117 L 207.5 117 L 208.5 115 L 216 115 L 216 112 Z M 187 132 L 185 135 L 187 135 L 187 132 Z M 191 133 L 190 134 Q 187 133 188 136 L 192 135 Q 193 132 191 133 Z " /><path fill="rgb(89,83,229)" stroke="rgb(89,83,229)" stroke-width="1" opacity="1" d="M 187.5 114 L 186.5 116 L 187.5 114 Z " /><path fill="rgb(89,83,229)" stroke="rgb(89,83,229)" stroke-width="1" opacity="1" d="M 157.5 118 L 158.5 120 L 157.5 118 Z " /><path fill="rgb(89,83,229)" stroke="rgb(89,83,229)" stroke-width="1" opacity="1" d="M 184.5 119 L 186.5 122 L 187 120 L 189 120.5 Q 185.9 122.3 187.5 124 L 185 125.5 L 185.5 127 L 184 126.5 Q 184.7 129.1 182 128 L 183 123.5 L 182 120.5 L 184 120.5 L 184.5 119 Z " /><path fill="rgb(89,83,229)" stroke="rgb(89,83,229)" stroke-width="1" opacity="1" d="M 172.5 120 L 174 122.5 L 171.5 127 L 169.5 126 L 168 126.5 L 167 122.5 L 168 122.5 L 168.5 125 L 170.5 122 Q 171.8 124.2 173 121.5 L 172.5 120 Z M 171 124 Q 169 127 172 126 L 171 124 Z " /><path fill="rgb(89,83,229)" stroke="rgb(89,83,229)" stroke-width="1" opacity="1" d="M 135.5 134 L 138 135.5 L 136.5 136 L 135.5 134 Z " /><path fill="rgb(72,72,225)" stroke="rgb(72,72,225)" stroke-width="1" opacity="1" d="M 174.5 119 L 175 121 L 173 120.5 L 174.5 119 Z " /><path fill="rgb(72,72,225)" stroke="rgb(72,72,225)" stroke-width="1" opacity="1" d="M 189.5 120 L 190.5 122 L 189.5 120 Z " /><path fill="rgb(72,72,225)" stroke="rgb(72,72,225)" stroke-width="1" opacity="1" d="M 173.5 123 L 171.5 126 L 173.5 123 Z " /><path fill="rgb(72,72,225)" stroke="rgb(72,72,225)" stroke-width="1" opacity="1" d="M 182.5 123 L 183 125.5 L 182 125.5 L 182.5 123 Z " /><path fill="rgb(72,72,225)" stroke="rgb(72,72,225)" stroke-width="1" opacity="1" d="M 191.5 123 L 190.5 125 L 191.5 123 Z " /><path fill="rgb(72,72,225)" stroke="rgb(72,72,225)" stroke-width="1" opacity="1" d="M 186.5 124 L 185.5 126 L 186.5 124 Z " /><path fill="rgb(72,72,225)" stroke="rgb(72,72,225)" stroke-width="1" opacity="1" d="M 169.5 126 L 170.5 128 L 168 127.5 L 169.5 126 Z " /><path fill="rgb(72,72,225)" stroke="rgb(72,72,225)" stroke-width="1" opacity="1" d="M 174.5 129 L 175 130.5 L 173.5 134 L 173.5 132 L 172 131.5 L 174 131 L 174.5 129 Z " /><path fill="rgb(72,72,225)" stroke="rgb(72,72,225)" stroke-width="1" opacity="1" d="M 159.5 130 L 161.5 133 L 159.5 130 Z " /><path fill="rgb(72,72,225)" stroke="rgb(72,72,225)" stroke-width="1" opacity="1" d="M 187.5 131 L 186.5 133 L 187.5 131 Z " /><path fill="rgb(72,72,225)" stroke="rgb(72,72,225)" stroke-width="1" opacity="1" d="M 170.5 132 L 168.5 135 L 170.5 132 Z " /><path fill="rgb(72,72,225)" stroke="rgb(72,72,225)" stroke-width="1" opacity="1" d="M 176.5 132 L 177.5 134 L 176.5 132 Z " /><path fill="rgb(72,72,225)" stroke="rgb(72,72,225)" stroke-width="1" opacity="1" d="M 189.5 132 L 191.5 135 L 189.5 132 Z " /><path fill="rgb(72,72,225)" stroke="rgb(72,72,225)" stroke-width="1" opacity="1" d="M 175.5 134 L 176.5 136 L 175.5 134 Z " /><path fill="rgb(72,72,225)" stroke="rgb(72,72,225)" stroke-width="1" opacity="1" d="M 56 168 L 72 168.5 L 64 169.5 L 72 170.5 L 64 171.5 L 72 172.5 L 64 173.5 L 80 174 L 79.5 176 L 68.5 176 L 70.5 179 L 72 179.5 L 70 180.5 L 72 181 L 72 184 L 64 184 L 64 188 L 56.5 188 L 55.5 187 L 48 187 L 47.5 189 L 40 189 L 39.5 192 L 24 192 L 23.5 189 L 8 189 L 7.5 191 L 0 191 L 0 173 L 23.5 173 L 24.5 172 L 48 172 L 48 170 L 55.5 170 L 56 168 Z M 49 185 L 49 186 L 56 186 L 49 185 Z " /><path fill="rgb(88,54,230)" stroke="rgb(88,54,230)" stroke-width="1" opacity="1" d="M 184.5 133 L 183.5 135 L 184.5 133 Z " /><path fill="rgb(88,54,230)" stroke="rgb(88,54,230)" stroke-width="1" opacity="1" d="M 64 184 L 79.5 184 L 80 187 L 88 187 L 88.5 190 L 95.5 190 L 95.5 191 L 80 192 L 80 197 L 88 197 L 88 208 Q 84.3 206.8 86 212 L 83 212 L 83 216 L 80 216 L 80 224.5 L 79.5 225 L 0 225 L 0 191 L 7.5 191 L 8.5 189 L 24 189 L 24.5 192 L 40 192 L 40 189 L 47.5 189 L 48.5 187 L 55.5 187 L 56.5 188 L 64 188 L 64 184 Z M 80 208 L 79 216 L 80 216 L 80 208 Z " /><path fill="rgb(88,54,230)" stroke="rgb(88,54,230)" stroke-width="1" opacity="1" d="M 48.5 185 L 56 185.5 L 48.5 186 L 48.5 185 Z " /><path fill="rgb(108,66,236)" stroke="rgb(108,66,236)" stroke-width="1" opacity="1" d="M 191.5 133 L 190.5 135 L 188.5 136 L 189.5 134 L 191.5 133 Z " /><path fill="rgb(108,66,236)" stroke="rgb(108,66,236)" stroke-width="1" opacity="1" d="M 200 136 L 225 136 L 225 158 L 216.5 158 L 215.5 160 L 192.5 160 L 192 164 L 184.5 164 L 183.5 166 L 176.5 166 L 175.5 168 L 168 168 L 168 176 L 160.5 176 L 159.5 178 L 152 178 L 152 188 L 144.5 188 L 143.5 190 L 136 190 L 136 198 L 128.5 198 Q 129.3 201.3 124 200 L 124 207.5 L 120 208 L 120 215.5 L 117 216 L 117 224 L 112.5 224 L 111.5 225 L 80 225 L 79 208.5 L 80 208.5 L 80 216 L 83 216 L 83 212 L 86 212 Q 84.8 206.7 88 207.5 L 88 197 L 80 197 L 80 192 L 96 190.5 L 88 190 L 88 185 L 95.5 185 L 96.5 184 L 104 184 L 104 177 L 111.5 177 L 115 176 L 118.5 171 L 121.5 172 L 124 168 L 131.5 168 L 134 165.5 Q 131.8 164.3 134.5 163 L 137.5 164 L 140 160 L 147.5 160 L 156 153.5 L 156.5 152 L 163.5 152 L 168 147.5 L 168 145 L 192 144 L 192 140 L 200 140 L 200 136 Z M 109 216 L 109 224 L 112 224 L 112 216 L 109 216 Z " /><path fill="rgb(108,66,236)" stroke="rgb(108,66,236)" stroke-width="1" opacity="1" d="M 50.5 137 L 54 137.5 L 50.5 138 L 50.5 137 Z " /><path fill="rgb(126,60,242)" stroke="rgb(126,60,242)" stroke-width="1" opacity="1" d="M 171.5 127 L 170.5 129 L 171.5 127 Z " /><path fill="rgb(126,60,242)" stroke="rgb(126,60,242)" stroke-width="1" opacity="1" d="M 185.5 131 L 184.5 133 L 185.5 131 Z " /><path fill="rgb(126,60,242)" stroke="rgb(126,60,242)" stroke-width="1" opacity="1" d="M 216 158 L 224.5 158 L 225 158.5 L 225 225 L 112.5 225 L 109 224 L 109 216 L 112 216 L 112 224 L 117 224 L 117 216.5 L 120 216 L 120 208 L 124 208 L 124 200 Q 129.3 201.3 128.5 198 L 136 198 L 136 190 L 143.5 190 L 144.5 188 L 152 188 L 152 178 L 159.5 178 L 160.5 176 L 168 176 L 168 168 L 175.5 168 L 176.5 166 L 183.5 166 L 184.5 164 L 192 164 L 192.5 160 L 215.5 160 L 216 158 Z " /></svg>